<svg xmlns="http://www.w3.org/2000/svg" width="109.25159" height="116.2325" viewBox="0 0 109.25159 116.2325"><title>logo</title><g id="af893c30-f022-4d27-aa7a-b0c92f1c6e67" data-name="Layer 2"><g id="01998830-ea67-432c-a487-4e117b1e8f22" data-name="Layer 1"><path d="M99.01852,92.64269c0,13.02754-9.8814,23.58981-22.06844,23.58981S54.884,105.67023,54.884,92.64269c0-13.0301,9.87886-23.59109,22.066-23.59109S99.01852,79.61259,99.01852,92.64269Z" fill="#f26522"/><path d="M54.02236,66.767c-4.91076,9.22173-14.56525,13.67483-21.56343,9.9487-6.99831-3.72728-8.68924-14.22468-3.77848-23.44513,4.91331-9.223,14.56511-13.67738,21.56342-9.9487C57.2409,47.04789,58.93439,57.54414,54.02236,66.767Z" fill="#f7941d"/><path d="M83.8124,28.94869c-7.77522,8.29773-19.13175,10.29041-25.36312,4.44939C52.21662,27.5595,53.47,16.09814,61.24758,7.80054,69.0228-.4972,80.37931-2.49115,86.61068,3.34986,92.84078,9.18972,91.58873,20.65109,83.8124,28.94869Z" fill="#f7941d"/><path d="M26.41463,42.38154c-4.064,7.76524-11.10471,12.09856-15.72241,9.68194-4.619-2.418-5.06667-10.67209-1.00266-18.43848C13.75485,25.861,20.793,21.52644,25.412,23.94319,30.031,26.36237,30.4812,34.61642,26.41463,42.38154Z" fill="#f7941d"/><path d="M26.37466,98.56606c-2.18345,9.28647-9.72548,15.45681-16.84344,13.78324-7.118-1.676-11.11838-10.561-8.93491-19.84631,2.18358-9.28775,9.72547-15.45923,16.8447-13.78452C24.5591,80.39191,28.56067,89.27946,26.37466,98.56606Z" fill="#f7941d"/><path d="M97.34253,27.70048H94.98824v-.84931h5.73v.84931H98.35259v6.88977H97.34253Z" fill="#fff"/><path d="M108.08063,31.19089c-.05732-1.07992-.12718-2.388-.12718-3.342H107.931c-.27556.89655-.58611,1.873-.97646,2.94042l-1.36673,3.756H104.831l-1.26458-3.68616c-.36661-1.10367-.66465-2.09-.88416-3.01028h-.02234c-.02248.96512-.07981,2.25214-.14966,3.423l-.20585,3.31841h-.95388l.5399-7.73908h1.27452l1.32062,3.74364c.32166.95273.57475,1.80317.78187,2.60625h.02235c.207-.7806.48268-1.63118.82682-2.60625l1.37795-3.74364h1.2744l.48268,7.73908h-.98771Z" fill="#fff"/></g></g></svg>